<svg xmlns="http://www.w3.org/2000/svg" version="1.1" xmlns:xlink="http://www.w3.org/1999/xlink" xmlns:svgjs="http://svgjs.dev/svgjs" viewBox="0 0 1422 800"><defs><linearGradient x1="50%" y1="0%" x2="50%" y2="100%" id="oooscillate-grad"><stop stop-color="hsl(0, 0%, 0%)" stop-opacity="1" offset="0%"></stop><stop stop-color="hsl(272, 99%, 54%)" stop-opacity="1" offset="100%"></stop></linearGradient></defs><g stroke-width="3" stroke="url(#oooscillate-grad)" fill="none" stroke-linecap="round"><path d="M 0 1218 Q 355.5 -100 711 400 Q 1066.5 900 1422 1218" opacity="0.30"></path><path d="M 0 1176 Q 355.5 -100 711 400 Q 1066.5 900 1422 1176" opacity="0.97"></path><path d="M 0 1134 Q 355.5 -100 711 400 Q 1066.5 900 1422 1134" opacity="0.88"></path><path d="M 0 1092 Q 355.5 -100 711 400 Q 1066.5 900 1422 1092" opacity="0.84"></path><path d="M 0 1050 Q 355.5 -100 711 400 Q 1066.5 900 1422 1050" opacity="0.37"></path><path d="M 0 1008 Q 355.5 -100 711 400 Q 1066.5 900 1422 1008" opacity="0.85"></path><path d="M 0 966 Q 355.5 -100 711 400 Q 1066.5 900 1422 966" opacity="0.26"></path><path d="M 0 924 Q 355.5 -100 711 400 Q 1066.5 900 1422 924" opacity="0.25"></path><path d="M 0 882 Q 355.5 -100 711 400 Q 1066.5 900 1422 882" opacity="0.08"></path><path d="M 0 840 Q 355.5 -100 711 400 Q 1066.5 900 1422 840" opacity="0.50"></path><path d="M 0 798 Q 355.5 -100 711 400 Q 1066.5 900 1422 798" opacity="0.54"></path><path d="M 0 756 Q 355.5 -100 711 400 Q 1066.5 900 1422 756" opacity="0.44"></path><path d="M 0 714 Q 355.5 -100 711 400 Q 1066.5 900 1422 714" opacity="0.93"></path><path d="M 0 672 Q 355.5 -100 711 400 Q 1066.5 900 1422 672" opacity="0.10"></path><path d="M 0 630 Q 355.5 -100 711 400 Q 1066.5 900 1422 630" opacity="0.19"></path><path d="M 0 588 Q 355.5 -100 711 400 Q 1066.5 900 1422 588" opacity="0.84"></path><path d="M 0 546 Q 355.5 -100 711 400 Q 1066.5 900 1422 546" opacity="0.34"></path><path d="M 0 504 Q 355.5 -100 711 400 Q 1066.5 900 1422 504" opacity="0.16"></path><path d="M 0 462 Q 355.5 -100 711 400 Q 1066.5 900 1422 462" opacity="0.31"></path><path d="M 0 420 Q 355.5 -100 711 400 Q 1066.5 900 1422 420" opacity="0.83"></path><path d="M 0 378 Q 355.5 -100 711 400 Q 1066.5 900 1422 378" opacity="0.11"></path><path d="M 0 336 Q 355.5 -100 711 400 Q 1066.5 900 1422 336" opacity="0.59"></path><path d="M 0 294 Q 355.5 -100 711 400 Q 1066.5 900 1422 294" opacity="0.67"></path><path d="M 0 252 Q 355.5 -100 711 400 Q 1066.5 900 1422 252" opacity="0.27"></path><path d="M 0 210 Q 355.5 -100 711 400 Q 1066.5 900 1422 210" opacity="0.32"></path><path d="M 0 168 Q 355.5 -100 711 400 Q 1066.5 900 1422 168" opacity="0.10"></path><path d="M 0 126 Q 355.5 -100 711 400 Q 1066.5 900 1422 126" opacity="0.88"></path><path d="M 0 84 Q 355.5 -100 711 400 Q 1066.5 900 1422 84" opacity="0.89"></path></g></svg>