<svg xmlns="http://www.w3.org/2000/svg" version="1.1" xmlns:xlink="http://www.w3.org/1999/xlink" xmlns:svgjs="http://svgjs.dev/svgjs" viewBox="0 0 800 800"><defs><linearGradient x1="50%" y1="0%" x2="50%" y2="100%" id="vvvortex-grad"><stop stop-color="hsl(272, 99%, 54%)" stop-opacity="1" offset="0%"></stop><stop stop-color="hsl(212, 72%, 59%)" stop-opacity="1" offset="100%"></stop></linearGradient></defs><g stroke="url(#vvvortex-grad)" fill="none" stroke-linecap="round"><circle r="1015" cx="400" cy="400" stroke-width="7" stroke-dasharray="34 17" stroke-dashoffset="25" transform="rotate(43, 400, 400)" opacity="1.00"></circle><circle r="986" cx="400" cy="400" stroke-width="6" stroke-dasharray="16 27" stroke-dashoffset="25" transform="rotate(60, 400, 400)" opacity="0.97"></circle><circle r="957" cx="400" cy="400" stroke-width="6" stroke-dasharray="34 24" stroke-dashoffset="25" transform="rotate(294, 400, 400)" opacity="0.94"></circle><circle r="928" cx="400" cy="400" stroke-width="6" stroke-dasharray="36 22" stroke-dashoffset="25" transform="rotate(114, 400, 400)" opacity="0.92"></circle><circle r="899" cx="400" cy="400" stroke-width="6" stroke-dasharray="49 51" stroke-dashoffset="25" transform="rotate(34, 400, 400)" opacity="0.89"></circle><circle r="870" cx="400" cy="400" stroke-width="6" stroke-dasharray="11 21" stroke-dashoffset="25" transform="rotate(303, 400, 400)" opacity="0.86"></circle><circle r="841" cx="400" cy="400" stroke-width="6" stroke-dasharray="30 23" stroke-dashoffset="25" transform="rotate(114, 400, 400)" opacity="0.83"></circle><circle r="812" cx="400" cy="400" stroke-width="6" stroke-dasharray="44 45" stroke-dashoffset="25" transform="rotate(288, 400, 400)" opacity="0.80"></circle><circle r="783" cx="400" cy="400" stroke-width="6" stroke-dasharray="54 31" stroke-dashoffset="25" transform="rotate(142, 400, 400)" opacity="0.78"></circle><circle r="754" cx="400" cy="400" stroke-width="5" stroke-dasharray="50 41" stroke-dashoffset="25" transform="rotate(100, 400, 400)" opacity="0.75"></circle><circle r="725" cx="400" cy="400" stroke-width="5" stroke-dasharray="51 29" stroke-dashoffset="25" transform="rotate(154, 400, 400)" opacity="0.72"></circle><circle r="696" cx="400" cy="400" stroke-width="5" stroke-dasharray="51 30" stroke-dashoffset="25" transform="rotate(144, 400, 400)" opacity="0.69"></circle><circle r="667" cx="400" cy="400" stroke-width="5" stroke-dasharray="27 17" stroke-dashoffset="25" transform="rotate(20, 400, 400)" opacity="0.66"></circle><circle r="638" cx="400" cy="400" stroke-width="5" stroke-dasharray="47 11" stroke-dashoffset="25" transform="rotate(256, 400, 400)" opacity="0.64"></circle><circle r="609" cx="400" cy="400" stroke-width="5" stroke-dasharray="44 50" stroke-dashoffset="25" transform="rotate(134, 400, 400)" opacity="0.61"></circle><circle r="580" cx="400" cy="400" stroke-width="5" stroke-dasharray="34 50" stroke-dashoffset="25" transform="rotate(225, 400, 400)" opacity="0.58"></circle><circle r="551" cx="400" cy="400" stroke-width="5" stroke-dasharray="30 22" stroke-dashoffset="25" transform="rotate(56, 400, 400)" opacity="0.55"></circle><circle r="522" cx="400" cy="400" stroke-width="5" stroke-dasharray="20 48" stroke-dashoffset="25" transform="rotate(350, 400, 400)" opacity="0.53"></circle><circle r="493" cx="400" cy="400" stroke-width="4" stroke-dasharray="21 12" stroke-dashoffset="25" transform="rotate(318, 400, 400)" opacity="0.50"></circle><circle r="464" cx="400" cy="400" stroke-width="4" stroke-dasharray="26 26" stroke-dashoffset="25" transform="rotate(340, 400, 400)" opacity="0.47"></circle><circle r="435" cx="400" cy="400" stroke-width="4" stroke-dasharray="24 11" stroke-dashoffset="25" transform="rotate(305, 400, 400)" opacity="0.44"></circle><circle r="406" cx="400" cy="400" stroke-width="4" stroke-dasharray="52 49" stroke-dashoffset="25" transform="rotate(299, 400, 400)" opacity="0.41"></circle><circle r="377" cx="400" cy="400" stroke-width="4" stroke-dasharray="21 35" stroke-dashoffset="25" transform="rotate(72, 400, 400)" opacity="0.39"></circle><circle r="348" cx="400" cy="400" stroke-width="4" stroke-dasharray="30 11" stroke-dashoffset="25" transform="rotate(45, 400, 400)" opacity="0.36"></circle><circle r="319" cx="400" cy="400" stroke-width="4" stroke-dasharray="51 38" stroke-dashoffset="25" transform="rotate(140, 400, 400)" opacity="0.33"></circle><circle r="290" cx="400" cy="400" stroke-width="4" stroke-dasharray="47 34" stroke-dashoffset="25" transform="rotate(195, 400, 400)" opacity="0.30"></circle><circle r="261" cx="400" cy="400" stroke-width="3" stroke-dasharray="30 10" stroke-dashoffset="25" transform="rotate(19, 400, 400)" opacity="0.27"></circle><circle r="232" cx="400" cy="400" stroke-width="3" stroke-dasharray="46 46" stroke-dashoffset="25" transform="rotate(151, 400, 400)" opacity="0.25"></circle><circle r="203" cx="400" cy="400" stroke-width="3" stroke-dasharray="23 21" stroke-dashoffset="25" transform="rotate(256, 400, 400)" opacity="0.22"></circle><circle r="174" cx="400" cy="400" stroke-width="3" stroke-dasharray="14 40" stroke-dashoffset="25" transform="rotate(59, 400, 400)" opacity="0.19"></circle><circle r="145" cx="400" cy="400" stroke-width="3" stroke-dasharray="13 47" stroke-dashoffset="25" transform="rotate(285, 400, 400)" opacity="0.16"></circle><circle r="116" cx="400" cy="400" stroke-width="3" stroke-dasharray="11 40" stroke-dashoffset="25" transform="rotate(199, 400, 400)" opacity="0.13"></circle><circle r="87" cx="400" cy="400" stroke-width="3" stroke-dasharray="54 47" stroke-dashoffset="25" transform="rotate(83, 400, 400)" opacity="0.11"></circle><circle r="58" cx="400" cy="400" stroke-width="3" stroke-dasharray="40 28" stroke-dashoffset="25" transform="rotate(160, 400, 400)" opacity="0.08"></circle><circle r="29" cx="400" cy="400" stroke-width="3" stroke-dasharray="30 47" stroke-dashoffset="25" transform="rotate(105, 400, 400)" opacity="0.05"></circle></g></svg>